<?xml version="1.0" standalone="no"?>
<!DOCTYPE svg PUBLIC "-//W3C//DTD SVG 20010904//EN"
 "http://www.w3.org/TR/2001/REC-SVG-20010904/DTD/svg10.dtd">
<svg version="1.0" xmlns="http://www.w3.org/2000/svg"
 width="500.000000pt" height="500.000000pt" viewBox="0 0 500.000000 500.000000"
 preserveAspectRatio="xMidYMid meet">
<metadata>
Created by potrace 1.11, written by Peter Selinger 2001-2013
</metadata>
<g transform="translate(0.000000,500.000000) scale(0.100000,-0.100000)"
fill="#000000" stroke="none">
<path d="M2085 4054 c-188 -20 -389 -60 -447 -90 -58 -30 -79 -135 -36 -189
43 -55 71 -59 222 -25 187 42 317 53 551 47 351 -9 630 -72 876 -198 85 -44
129 -49 173 -20 39 26 55 57 56 106 0 73 -25 98 -172 169 -187 90 -373 145
-613 181 -106 16 -518 28 -610 19z"/>
<path d="M2020 3586 c-112 -17 -248 -49 -294 -71 -77 -37 -74 -163 4 -195 27
-11 43 -10 118 8 145 36 279 52 432 52 293 0 537 -57 782 -180 118 -60 156
-64 199 -21 23 24 29 38 29 74 0 66 -24 88 -173 161 -146 72 -309 125 -480
157 -147 27 -478 35 -617 15z"/>
<path d="M2076 3149 c-143 -15 -307 -50 -327 -70 -28 -28 -34 -66 -16 -105 20
-41 51 -51 121 -35 194 42 432 59 591 42 196 -22 320 -58 492 -145 102 -50
118 -54 151 -30 33 23 45 60 32 100 -9 27 -26 42 -78 73 -135 78 -349 147
-531 170 -96 12 -317 12 -435 0z"/>
<path d="M1638 2664 c-84 -20 -147 -55 -199 -111 -96 -103 -139 -201 -139
-319 0 -326 338 -540 627 -398 33 17 39 26 59 91 29 96 66 156 140 228 l62 60
-9 70 c-23 183 -167 342 -345 380 -84 18 -121 18 -196 -1z"/>
<path d="M3177 2669 c-110 -22 -219 -95 -287 -194 -37 -55 -70 -147 -70 -198
0 -41 3 -45 66 -92 98 -73 161 -181 189 -322 5 -27 13 -34 53 -47 157 -54 331
-8 455 120 21 21 55 73 75 113 36 72 37 79 37 180 0 101 -2 109 -37 183 -41
87 -127 182 -195 217 -51 25 -155 51 -203 50 -19 -1 -57 -5 -83 -10z"/>
<path d="M2422 2205 c-35 -8 -86 -27 -114 -43 -59 -35 -148 -135 -184 -208
-76 -156 -46 -344 76 -476 111 -122 277 -174 425 -134 151 40 271 154 317 300
31 97 22 211 -23 307 -66 137 -166 222 -300 254 -77 18 -114 18 -197 0z"/>
<path d="M1485 1743 c-179 -24 -342 -135 -433 -296 -58 -100 -62 -133 -62
-447 l0 -287 73 -22 c157 -46 368 -86 550 -103 l37 -4 0 116 c0 217 55 355
200 501 71 71 102 94 176 131 l91 44 -35 44 c-47 61 -90 155 -103 226 -6 32
-13 69 -15 82 l-4 22 -223 -1 c-122 -1 -235 -4 -252 -6z"/>
<path d="M3072 1674 c-14 -93 -64 -204 -116 -261 l-36 -40 48 -18 c85 -33 166
-87 232 -155 139 -144 199 -306 200 -543 l0 -78 53 6 c170 19 227 28 319 51
57 15 136 40 176 57 l74 31 -4 280 c-5 306 -6 314 -73 446 -37 74 -154 189
-230 227 -118 60 -150 66 -400 70 l-230 5 -13 -78z"/>
<path d="M2227 1275 c-209 -43 -388 -211 -442 -415 -11 -42 -15 -121 -15 -332
0 -255 1 -277 18 -282 125 -38 261 -70 390 -93 143 -25 178 -28 392 -27 180 0
257 4 327 17 117 22 252 61 326 94 l57 26 0 246 c0 178 -4 265 -15 316 -44
205 -193 370 -395 437 -58 19 -91 22 -320 24 -190 2 -273 -1 -323 -11z"/>
</g>
</svg>
